<mxfile host="app.diagrams.net" modified="2023-04-11T04:37:13.364Z" agent="Mozilla/5.0 (Windows NT 10.0; Win64; x64) AppleWebKit/537.36 (KHTML, like Gecko) Chrome/112.0.0.0 Safari/537.36 Edg/112.0.1722.34" etag="0UBy0Zjf9LTlAam2mAoV" version="21.1.5" type="device">
  <diagram id="C5RBs43oDa-KdzZeNtuy" name="Page-1">
    <mxGraphModel dx="1148" dy="657" grid="1" gridSize="10" guides="1" tooltips="1" connect="1" arrows="1" fold="1" page="1" pageScale="1" pageWidth="827" pageHeight="1169" math="0" shadow="0">
      <root>
        <mxCell id="WIyWlLk6GJQsqaUBKTNV-0" />
        <mxCell id="WIyWlLk6GJQsqaUBKTNV-1" parent="WIyWlLk6GJQsqaUBKTNV-0" />
        <mxCell id="8rIW4_TmXnlsTLnZ4p6S-0" value="Posto" style="swimlane;fontStyle=1;align=center;verticalAlign=top;childLayout=stackLayout;horizontal=1;startSize=26;horizontalStack=0;resizeParent=1;resizeParentMax=0;resizeLast=0;collapsible=1;marginBottom=0;whiteSpace=wrap;html=1;" vertex="1" parent="WIyWlLk6GJQsqaUBKTNV-1">
          <mxGeometry x="60" y="40" width="210" height="270" as="geometry" />
        </mxCell>
        <mxCell id="8rIW4_TmXnlsTLnZ4p6S-1" value="- PostoId: int&lt;br&gt;- nome: string&lt;br&gt;- endereco: string&lt;br&gt;- bairro: string&lt;br&gt;- cidade: string&lt;br&gt;- estado: string&lt;br&gt;- cep: string&lt;br&gt;- telefone: string&lt;br&gt;- latitude: string&lt;br&gt;-longitude: string" style="text;strokeColor=none;fillColor=none;align=left;verticalAlign=top;spacingLeft=4;spacingRight=4;overflow=hidden;rotatable=0;points=[[0,0.5],[1,0.5]];portConstraint=eastwest;whiteSpace=wrap;html=1;" vertex="1" parent="8rIW4_TmXnlsTLnZ4p6S-0">
          <mxGeometry y="26" width="210" height="164" as="geometry" />
        </mxCell>
        <mxCell id="8rIW4_TmXnlsTLnZ4p6S-2" value="" style="line;strokeWidth=1;fillColor=none;align=left;verticalAlign=middle;spacingTop=-1;spacingLeft=3;spacingRight=3;rotatable=0;labelPosition=right;points=[];portConstraint=eastwest;strokeColor=inherit;" vertex="1" parent="8rIW4_TmXnlsTLnZ4p6S-0">
          <mxGeometry y="190" width="210" height="8" as="geometry" />
        </mxCell>
        <mxCell id="8rIW4_TmXnlsTLnZ4p6S-3" value="+ crud(Posto)&lt;br&gt;+ GetLocalizacao(id)&lt;br&gt;+ GetPrecos(PostoId)&lt;br&gt;+ GetPreco(PostoId, CombustivelID)" style="text;strokeColor=none;fillColor=none;align=left;verticalAlign=top;spacingLeft=4;spacingRight=4;overflow=hidden;rotatable=0;points=[[0,0.5],[1,0.5]];portConstraint=eastwest;whiteSpace=wrap;html=1;" vertex="1" parent="8rIW4_TmXnlsTLnZ4p6S-0">
          <mxGeometry y="198" width="210" height="72" as="geometry" />
        </mxCell>
        <mxCell id="8rIW4_TmXnlsTLnZ4p6S-4" value="Combustivel&lt;br&gt;" style="swimlane;fontStyle=1;align=center;verticalAlign=top;childLayout=stackLayout;horizontal=1;startSize=26;horizontalStack=0;resizeParent=1;resizeParentMax=0;resizeLast=0;collapsible=1;marginBottom=0;whiteSpace=wrap;html=1;" vertex="1" parent="WIyWlLk6GJQsqaUBKTNV-1">
          <mxGeometry x="490" y="80" width="180" height="140" as="geometry" />
        </mxCell>
        <mxCell id="8rIW4_TmXnlsTLnZ4p6S-5" value="- CombustivelId: int&lt;br&gt;- descricao: string&lt;br&gt;- preco: float&lt;br&gt;- aditivado: boolean" style="text;strokeColor=none;fillColor=none;align=left;verticalAlign=top;spacingLeft=4;spacingRight=4;overflow=hidden;rotatable=0;points=[[0,0.5],[1,0.5]];portConstraint=eastwest;whiteSpace=wrap;html=1;" vertex="1" parent="8rIW4_TmXnlsTLnZ4p6S-4">
          <mxGeometry y="26" width="180" height="64" as="geometry" />
        </mxCell>
        <mxCell id="8rIW4_TmXnlsTLnZ4p6S-6" value="" style="line;strokeWidth=1;fillColor=none;align=left;verticalAlign=middle;spacingTop=-1;spacingLeft=3;spacingRight=3;rotatable=0;labelPosition=right;points=[];portConstraint=eastwest;strokeColor=inherit;" vertex="1" parent="8rIW4_TmXnlsTLnZ4p6S-4">
          <mxGeometry y="90" width="180" height="8" as="geometry" />
        </mxCell>
        <mxCell id="8rIW4_TmXnlsTLnZ4p6S-7" value="+ crud(Combustivel)&lt;br&gt;+ GetPostos(CombustivelId)" style="text;strokeColor=none;fillColor=none;align=left;verticalAlign=top;spacingLeft=4;spacingRight=4;overflow=hidden;rotatable=0;points=[[0,0.5],[1,0.5]];portConstraint=eastwest;whiteSpace=wrap;html=1;" vertex="1" parent="8rIW4_TmXnlsTLnZ4p6S-4">
          <mxGeometry y="98" width="180" height="42" as="geometry" />
        </mxCell>
        <mxCell id="8rIW4_TmXnlsTLnZ4p6S-8" value="Usuario&lt;br&gt;" style="swimlane;fontStyle=1;align=center;verticalAlign=top;childLayout=stackLayout;horizontal=1;startSize=26;horizontalStack=0;resizeParent=1;resizeParentMax=0;resizeLast=0;collapsible=1;marginBottom=0;whiteSpace=wrap;html=1;" vertex="1" parent="WIyWlLk6GJQsqaUBKTNV-1">
          <mxGeometry x="70" y="360" width="160" height="124" as="geometry">
            <mxRectangle x="150" y="220" width="90" height="30" as="alternateBounds" />
          </mxGeometry>
        </mxCell>
        <mxCell id="8rIW4_TmXnlsTLnZ4p6S-9" value="- UsuarioId: int&lt;br&gt;- nome: string&lt;br&gt;- FuncaoId: int" style="text;strokeColor=none;fillColor=none;align=left;verticalAlign=top;spacingLeft=4;spacingRight=4;overflow=hidden;rotatable=0;points=[[0,0.5],[1,0.5]];portConstraint=eastwest;whiteSpace=wrap;html=1;" vertex="1" parent="8rIW4_TmXnlsTLnZ4p6S-8">
          <mxGeometry y="26" width="160" height="64" as="geometry" />
        </mxCell>
        <mxCell id="8rIW4_TmXnlsTLnZ4p6S-10" value="" style="line;strokeWidth=1;fillColor=none;align=left;verticalAlign=middle;spacingTop=-1;spacingLeft=3;spacingRight=3;rotatable=0;labelPosition=right;points=[];portConstraint=eastwest;strokeColor=inherit;" vertex="1" parent="8rIW4_TmXnlsTLnZ4p6S-8">
          <mxGeometry y="90" width="160" height="8" as="geometry" />
        </mxCell>
        <mxCell id="8rIW4_TmXnlsTLnZ4p6S-11" value="+ crud(Usuario)" style="text;strokeColor=none;fillColor=none;align=left;verticalAlign=top;spacingLeft=4;spacingRight=4;overflow=hidden;rotatable=0;points=[[0,0.5],[1,0.5]];portConstraint=eastwest;whiteSpace=wrap;html=1;" vertex="1" parent="8rIW4_TmXnlsTLnZ4p6S-8">
          <mxGeometry y="98" width="160" height="26" as="geometry" />
        </mxCell>
        <mxCell id="8rIW4_TmXnlsTLnZ4p6S-12" value="Funcao&lt;br&gt;" style="swimlane;fontStyle=1;align=center;verticalAlign=top;childLayout=stackLayout;horizontal=1;startSize=26;horizontalStack=0;resizeParent=1;resizeParentMax=0;resizeLast=0;collapsible=1;marginBottom=0;whiteSpace=wrap;html=1;" vertex="1" parent="WIyWlLk6GJQsqaUBKTNV-1">
          <mxGeometry x="470" y="360" width="160" height="104" as="geometry">
            <mxRectangle x="470" y="220" width="100" height="30" as="alternateBounds" />
          </mxGeometry>
        </mxCell>
        <mxCell id="8rIW4_TmXnlsTLnZ4p6S-13" value="- FuncaoId: int&lt;br&gt;- descricao: string" style="text;strokeColor=none;fillColor=none;align=left;verticalAlign=top;spacingLeft=4;spacingRight=4;overflow=hidden;rotatable=0;points=[[0,0.5],[1,0.5]];portConstraint=eastwest;whiteSpace=wrap;html=1;" vertex="1" parent="8rIW4_TmXnlsTLnZ4p6S-12">
          <mxGeometry y="26" width="160" height="44" as="geometry" />
        </mxCell>
        <mxCell id="8rIW4_TmXnlsTLnZ4p6S-14" value="" style="line;strokeWidth=1;fillColor=none;align=left;verticalAlign=middle;spacingTop=-1;spacingLeft=3;spacingRight=3;rotatable=0;labelPosition=right;points=[];portConstraint=eastwest;strokeColor=inherit;" vertex="1" parent="8rIW4_TmXnlsTLnZ4p6S-12">
          <mxGeometry y="70" width="160" height="8" as="geometry" />
        </mxCell>
        <mxCell id="8rIW4_TmXnlsTLnZ4p6S-15" value="+ crud(Funcao)" style="text;strokeColor=none;fillColor=none;align=left;verticalAlign=top;spacingLeft=4;spacingRight=4;overflow=hidden;rotatable=0;points=[[0,0.5],[1,0.5]];portConstraint=eastwest;whiteSpace=wrap;html=1;" vertex="1" parent="8rIW4_TmXnlsTLnZ4p6S-12">
          <mxGeometry y="78" width="160" height="26" as="geometry" />
        </mxCell>
        <mxCell id="8rIW4_TmXnlsTLnZ4p6S-18" value="Vende" style="endArrow=block;endFill=1;html=1;edgeStyle=orthogonalEdgeStyle;align=left;verticalAlign=top;rounded=0;entryX=0;entryY=0.5;entryDx=0;entryDy=0;startArrow=block;startFill=1;" edge="1" parent="WIyWlLk6GJQsqaUBKTNV-1" source="8rIW4_TmXnlsTLnZ4p6S-1" target="8rIW4_TmXnlsTLnZ4p6S-5">
          <mxGeometry x="-1" relative="1" as="geometry">
            <mxPoint x="230" y="140" as="sourcePoint" />
            <mxPoint x="490" y="330" as="targetPoint" />
          </mxGeometry>
        </mxCell>
        <mxCell id="8rIW4_TmXnlsTLnZ4p6S-19" value="0..*" style="edgeLabel;resizable=0;html=1;align=left;verticalAlign=bottom;" connectable="0" vertex="1" parent="8rIW4_TmXnlsTLnZ4p6S-18">
          <mxGeometry x="-1" relative="1" as="geometry">
            <mxPoint x="10" y="-8" as="offset" />
          </mxGeometry>
        </mxCell>
        <mxCell id="8rIW4_TmXnlsTLnZ4p6S-21" value="Ã‰ Vendido" style="edgeLabel;html=1;align=center;verticalAlign=middle;resizable=0;points=[];" vertex="1" connectable="0" parent="8rIW4_TmXnlsTLnZ4p6S-18">
          <mxGeometry x="0.8914" y="1" relative="1" as="geometry">
            <mxPoint x="-15" y="13" as="offset" />
          </mxGeometry>
        </mxCell>
        <mxCell id="8rIW4_TmXnlsTLnZ4p6S-22" value="0..*" style="edgeLabel;html=1;align=center;verticalAlign=middle;resizable=0;points=[];" vertex="1" connectable="0" parent="8rIW4_TmXnlsTLnZ4p6S-18">
          <mxGeometry x="0.8543" y="1" relative="1" as="geometry">
            <mxPoint y="-7" as="offset" />
          </mxGeometry>
        </mxCell>
      </root>
    </mxGraphModel>
  </diagram>
</mxfile>
